<svg width="877" height="102" viewBox="0 0 877 102" fill="none" xmlns="http://www.w3.org/2000/svg">
<path d="M52.135 50.743V85H71.515V2.57799H52.135V34.726H19.873V2.57799H0.436V85H19.873V50.743H52.135ZM101.427 59.977H139.788V55.132C139.788 37.576 130.212 24.922 111.573 24.922C93.1046 24.922 82.3316 38.944 82.3316 56.215C82.3316 74.341 94.5296 86.14 112.485 86.14C125.139 86.14 137.964 78.445 139.902 65.62H122.574C120.864 70.693 116.874 72.403 111.972 72.403C105.645 72.403 101.37 68.014 101.427 59.977ZM101.37 48.805C101.37 43.333 105.474 38.203 111.573 38.203C118.356 38.203 121.776 42.991 121.776 48.805H101.37ZM171.204 86.14C173.712 86.14 176.391 85.456 178.842 84.544V72.631L176.277 72.46C170.748 71.776 169.608 68.926 169.608 65.335V0.297997H150.627V67.843C150.627 76.393 151.596 86.14 171.204 86.14ZM208.387 86.14C210.895 86.14 213.574 85.456 216.025 84.544V72.631L213.46 72.46C207.931 71.776 206.791 68.926 206.791 65.335V0.297997H187.81V67.843C187.81 76.393 188.779 86.14 208.387 86.14ZM249.609 86.14C267.792 86.14 278.85 73.543 278.85 55.873C278.85 37.519 267.621 24.922 249.723 24.922C232.167 24.922 220.425 37.348 220.425 55.873C220.425 74.056 231.825 86.14 249.609 86.14ZM249.723 71.89C241.401 71.89 239.349 62.941 239.349 55.246C239.349 47.038 241.686 38.944 249.723 38.944C257.874 38.944 259.926 47.38 259.926 55.246C259.926 63.283 257.589 71.89 249.723 71.89ZM288.207 101.701H294.933L307.245 82.834V67.216H288.72V84.886L294.933 85.57L288.207 101.701ZM349.116 2.57799V85H368.553V2.57799H349.116ZM382.673 36.949H389.399L401.711 18.139V2.57799H383.186V20.134L389.399 20.818L382.673 36.949ZM412.025 85H431.405V48.064C431.405 43.105 435.908 40.597 439.841 40.597C443.717 40.597 447.992 43.162 447.992 47.779V85H467.372V48.064C467.372 42.934 471.989 40.597 475.808 40.597C479.855 40.597 484.073 42.991 484.073 48.52V85H503.51V45.955C503.51 30.736 493.136 24.922 484.244 24.922C476.663 24.922 470.279 29.083 466.46 34.27C462.755 28.171 455.915 24.922 450.044 24.922C440.867 24.922 434.768 29.14 431.063 34.327V26.062H412.025V85ZM641.878 2.57799H623.011L609.217 51.883L595.081 2.57799H581.287L567.493 51.883L553.414 2.57799H534.547L559.114 85H573.82L588.184 35.638L602.434 85H617.368L641.878 2.57799ZM668.795 2.57799H650.156V19.45H668.795V2.57799ZM668.681 26.062H650.213V85H668.681V26.062ZM702.461 86.14C704.969 86.14 707.648 85.456 710.099 84.544V72.631L707.534 72.46C702.005 71.776 700.865 68.926 700.865 65.335V0.297997H681.884V67.843C681.884 76.393 682.853 86.14 702.461 86.14ZM720.181 85H739.561V48.064C739.561 43.105 744.064 40.597 747.997 40.597C751.873 40.597 756.148 43.162 756.148 47.779V85H775.528V48.064C775.528 42.934 780.145 40.597 783.964 40.597C788.011 40.597 792.229 42.991 792.229 48.52V85H811.666V45.955C811.666 30.736 801.292 24.922 792.4 24.922C784.819 24.922 778.435 29.083 774.616 34.27C770.911 28.171 764.071 24.922 758.2 24.922C749.023 24.922 742.924 29.14 739.219 34.327V26.062H720.181V85ZM841.337 86.14C849.431 86.14 854.846 83.518 858.665 75.253L860.318 85H876.449V43.39C876.449 32.218 869.951 24.922 850.628 24.922C835.694 24.922 824.237 30.679 823.61 44.017H839.513C841.223 39.286 845.783 37.804 849.773 37.69C855.302 37.633 857.867 40.027 857.867 44.587V47.608L851.882 47.665C830.735 47.779 821.216 54.904 821.216 67.729C821.216 79.585 830.108 86.14 841.337 86.14ZM848.006 73.657C843.389 73.657 839.456 70.75 839.456 65.734C839.456 59.236 847.151 57.241 853.079 57.184L857.867 57.127V65.164C857.753 69.61 853.136 73.657 848.006 73.657Z" fill="white"/>
</svg>
