<svg width="397" height="257" viewBox="0 0 397 257" fill="none" xmlns="http://www.w3.org/2000/svg">
<path d="M320.575 121.217C328.713 113.944 345.999 97.8112 350.04 91.4639C355.092 83.5297 362.668 71.3451 363.23 51.2264C363.791 31.1076 355.092 10.4221 353.969 7.87183" stroke="#DFC534" stroke-width="10"/>
<path d="M162.045 30.5409L310.993 190.096" stroke="#DFC534" stroke-width="10"/>
<path d="M280.507 78.4946L351.932 152.605" stroke="#DFC534" stroke-width="10"/>
<path d="M133.785 222.713L7 87.7146C12.8618 81.1778 28.0457 65.4328 41.8871 54.7467C59.1889 41.389 66.847 39.3995 87.2688 40.2521C103.606 40.9342 119.414 55.694 125.276 62.9886C134.163 54.5572 153.696 36.0459 160.73 29.4523C167.764 22.8587 175.763 18.9367 178.883 17.7998C178.883 17.7998 206.679 6.43159 232.49 27.7471L278.723 76.9147L353.035 7C360.599 14.0104 377.257 31.0439 383.384 43.0942C391.042 58.1571 395.864 84.3041 387.922 106.472C381.569 124.207 369.013 137.924 363.529 142.566C337.057 167.387 282.41 218.506 275.603 224.418C267.093 231.807 262.555 236.07 247.523 243.175C232.49 250.281 208.381 254.828 183.421 249.996C163.453 246.131 142.01 230.197 133.785 222.713Z" stroke="#DFC534" stroke-width="10"/>
<path d="M41.8416 55.8257L149.157 169.534C156.539 176.812 176.007 191.341 194.014 195.338C217.01 200.442 246.536 196.472 246.536 196.472L126.161 64.3325" stroke="#DFC534" stroke-width="10"/>
</svg>
